<svg xmlns="http://www.w3.org/2000/svg" viewBox="0 0 1000 1250" preserveAspectRatio="xMidYMid slice" role="img" aria-label="Signal — abstraktes Werk">
  <defs>
    <radialGradient id="sg-bg" cx="50%" cy="86%" r="90%">
      <stop offset="0%" stop-color="#1b1d22"/>
      <stop offset="60%" stop-color="#0c0d10"/>
      <stop offset="100%" stop-color="#050506"/>
    </radialGradient>
    <radialGradient id="sg-core" cx="50%" cy="50%" r="50%">
      <stop offset="0%" stop-color="#f2f0ea" stop-opacity="0.95"/>
      <stop offset="35%" stop-color="#aeb6c4" stop-opacity="0.5"/>
      <stop offset="100%" stop-color="#aeb6c4" stop-opacity="0"/>
    </radialGradient>
    <filter id="sg-grain"><feTurbulence type="fractalNoise" baseFrequency="0.9" numOctaves="2" stitchTiles="stitch"/><feColorMatrix type="saturate" values="0"/></filter>
  </defs>
  <rect width="1000" height="1250" fill="url(#sg-bg)"/>
  <g fill="none" stroke="#cdd3df" stroke-width="1.4">
    <circle cx="500" cy="1060" r="170" stroke-opacity="0.55"/>
    <circle cx="500" cy="1060" r="280" stroke-opacity="0.46"/>
    <circle cx="500" cy="1060" r="400" stroke-opacity="0.38"/>
    <circle cx="500" cy="1060" r="530" stroke-opacity="0.30"/>
    <circle cx="500" cy="1060" r="670" stroke-opacity="0.23"/>
    <circle cx="500" cy="1060" r="820" stroke-opacity="0.16"/>
    <circle cx="500" cy="1060" r="980" stroke-opacity="0.10"/>
    <circle cx="500" cy="1060" r="1150" stroke-opacity="0.06"/>
  </g>
  <g stroke="#cdd3df" stroke-opacity="0.10" stroke-width="1">
    <line x1="500" y1="1060" x2="120" y2="120"/><line x1="500" y1="1060" x2="500" y2="60"/>
    <line x1="500" y1="1060" x2="880" y2="120"/><line x1="500" y1="1060" x2="40" y2="560"/>
    <line x1="500" y1="1060" x2="960" y2="560"/>
  </g>
  <circle cx="500" cy="1060" r="230" fill="url(#sg-core)"/>
  <circle cx="500" cy="1060" r="9" fill="#f4f2ec"/>
  <rect width="1000" height="1250" filter="url(#sg-grain)" opacity="0.05"/>
  <g fill="#ECEAE4" fill-opacity="0.62" font-family="Hanken Grotesk, sans-serif">
    <text x="64" y="150" font-size="26" letter-spacing="2">Signal</text>
    <text x="64" y="180" font-size="14" letter-spacing="5" opacity="0.7">MZ.9 — N°03</text>
  </g>
</svg>
